<?xml version="1.0" encoding="utf-8" ?>
<svg xmlns="http://www.w3.org/2000/svg" xmlns:xlink="http://www.w3.org/1999/xlink" width="1022" height="304">
	<path fill="#FE2E22" d="M204.981 41.1032C211.439 40.6592 218.13 40.9713 224.608 40.9758L260.243 41.0059L297.319 40.9654C304.482 40.9356 311.774 40.6251 318.926 40.9979C321.252 41.1191 323.552 41.3795 325.685 42.3778C328.348 43.6243 331.447 46.3356 332.454 49.1537C333.335 51.6193 333.596 54.3424 333.699 56.9452C334.331 73.0044 333.665 89.2765 333.679 105.364C333.693 121.712 334.401 138.374 333.623 154.688C333.568 155.837 333.39 156.793 332.899 157.844C332.849 157.583 332.803 157.374 332.683 157.134C331.185 154.159 313.726 137.17 309.991 135.959C306.467 137.887 251.544 193.824 248.266 198.229C252.758 204.759 260.912 211.478 266.62 217.152C275.478 225.957 284.129 235.419 293.545 243.611C294.912 242.824 296.138 241.86 297.388 240.903C301.654 236.913 303.707 232.103 306.939 227.355L307.754 227.529C311.413 230.955 324.737 242.51 325.8 246.389C325.687 247.077 325.692 247.752 325.259 248.316C323.037 251.205 317.29 252.364 313.89 252.841C306.652 253.857 298.615 253.207 291.281 253.183L251.756 253.168L195.735 253.21C186.519 253.216 176.796 253.836 167.624 253.077C164.189 252.792 159.9 251.996 157.107 249.843C154.302 247.681 151.758 244.358 151.292 240.775C150.295 233.108 150.965 224.699 150.963 216.934L150.916 171.615L150.907 119.709C150.914 110.243 150.168 100.092 151.564 90.7464C152.064 87.3935 154.292 84.133 156.332 81.513C160.958 75.5704 188.121 48.0944 193.719 44.5671C197.171 42.3919 200.985 41.6028 204.981 41.1032ZM298.649 104.824C300.81 103.831 302.488 102.619 303.368 100.311C304.017 98.6381 303.952 96.7725 303.19 95.1481C302.56 93.7954 301.286 92.193 299.851 91.6671C295.255 89.9831 228.219 90.7351 218.279 90.9753C215.828 91.6552 213.966 92.3934 212.639 94.7603C211.707 96.4222 211.673 98.3804 212.246 100.172C212.761 101.784 213.868 103.174 215.384 103.951C218.847 105.724 289.555 105.012 298.649 104.824ZM265.575 138.675C267.774 137.401 269.245 136.267 269.93 133.683C270.396 131.928 270.361 129.974 269.388 128.391C268.461 126.885 266.736 125.901 265.032 125.548C258.548 124.201 242.962 125.169 235.786 125.185C220.087 125.221 204.178 124.616 188.513 125.346C186.538 126.546 184.738 127.822 184.182 130.235C183.723 132.226 184.18 134.497 185.302 136.206C186.192 137.562 187.402 138.444 188.999 138.76C194.186 139.788 261.769 139.713 265.575 138.675ZM232.486 171.75C234.876 171.008 236.855 170.315 238.118 167.95C238.972 166.352 239.56 164.524 238.981 162.734C238.382 160.881 236.7 159.578 235.002 158.771C229.023 155.929 199.42 157.19 191.211 157.471C189.069 157.753 187.11 158.24 185.685 160.037C184.498 161.534 183.527 163.928 183.768 165.836C183.968 167.423 184.925 168.672 186.193 169.592C187.903 170.834 190.127 171.492 192.203 171.765C197.853 172.51 204.034 172.003 209.752 171.975C217.286 171.938 224.974 172.198 232.486 171.75Z"/>
	<path fill="#161D23" d="M729.874 116.557C738.535 115.731 747.969 116.182 756.074 119.639C763.608 122.852 769.155 128.663 772.148 136.279C773.558 139.869 774.267 143.613 774.595 147.442C775.242 155.011 775.629 206.029 773.906 210.003L754.438 209.977C754.515 209.823 754.514 209.836 754.57 209.696C754.593 209.641 754.613 209.585 754.636 209.53C754.748 209.254 754.853 208.988 754.927 208.699C755.562 206.229 754.814 199.532 753.469 197.305C752.984 198.478 752.152 199.58 751.289 200.505C744.642 207.629 734.384 211.041 724.806 211.403C715.857 211.741 706.398 209.679 699.788 203.351C697.682 201.334 696.06 198.905 693.926 196.926C694.14 195.669 691.473 186.36 691.364 183.507C691.152 177.929 693.021 172.429 696.828 168.318C709.463 154.675 734.583 154.565 751.815 153.861C752.298 152.776 752.201 151.818 752.111 150.661C751.702 145.367 750.572 140.908 746.353 137.339C742.769 134.307 737.976 133.107 733.35 133.513C727.501 134.026 722.426 136.742 719.852 142.184C718.976 144.034 718.335 146.242 716.975 147.784C716.911 147.857 716.844 147.928 716.778 148.001C713.539 146.107 701.034 142.832 697.059 142.316C698.968 139.571 699.967 136.075 701.93 133.184C708.799 123.066 718.27 118.785 729.874 116.557ZM720.287 191.96C727.22 194.163 734.791 193.838 741.325 190.457C745.802 188.141 748.982 184.442 750.498 179.621C751.701 175.796 751.742 171.853 751.868 167.884C750.369 167.707 749.002 167.813 747.514 167.973C739.203 169.462 722.283 170.934 717 178.47C715.523 180.578 715.202 182.95 715.679 185.443C716.426 189.342 718.349 189.244 720.287 191.96Z"/>
	<path fill="#161D23" d="M792.914 83.1131C800.642 82.8929 808.428 83.0733 816.162 83.058C816.197 83.1438 816.231 83.2301 816.267 83.3155C816.425 83.6904 816.583 84.0614 816.686 84.4567C817.379 87.1116 817.23 124.098 816.916 128.786C816.846 129.834 816.568 130.769 816.032 131.677C817.546 130.744 818.58 129.236 819.793 127.962C824.297 123.233 828.794 119.61 835.158 117.657C843.499 115.096 853.194 115.699 860.934 119.847C868.461 123.882 873.111 130.654 875.515 138.717C876.586 142.286 877.243 145.966 877.472 149.684C877.884 155.959 878.16 207.542 876.819 210.022L853.493 209.909C853.679 209.534 853.83 209.156 853.929 208.748C854.749 205.365 854.601 175.031 853.307 172.966C853.405 172.805 853.493 172.646 853.572 172.474C855.857 167.511 853.717 151.078 851.694 145.77C850.4 142.372 848.057 139.291 844.66 137.816C840.143 135.855 833.411 136.197 828.897 137.987C815.18 143.426 816.655 163.971 816.721 175.976L816.942 198.429C816.966 201.791 817.544 206.806 816.182 209.86C816.164 209.901 816.145 209.941 816.126 209.982C808.235 210.022 800.343 210.01 792.452 209.947C792.481 209.893 792.513 209.841 792.54 209.787C792.583 209.696 792.621 209.602 792.663 209.511C792.928 208.93 793.123 208.413 793.138 207.766C793.693 183.262 792.94 158.63 793.089 134.107L793.272 101.628C793.288 95.5681 793.659 89.1239 792.914 83.1131Z"/>
	<path fill="#161D23" d="M498.744 116.557C508.52 115.594 518.478 116.572 527.097 121.684C538.52 128.458 544.286 139.739 547.432 152.163C548.574 156.676 550.602 165.767 548.12 169.938C526.824 169.676 505.495 169.856 484.198 169.95C487.09 175.423 485.266 180.366 490.939 186.92C494.388 190.905 500.078 192.98 505.225 193.328C510.849 193.707 517.697 192.384 522.025 188.545C523.604 187.145 526.141 184.012 526.274 181.901C530.532 182.158 534.825 182.822 539.052 183.385C541.98 183.995 545.504 183.861 548.524 184.215C548.568 184.372 548.582 184.407 548.61 184.553C549.077 186.945 546.295 191.804 545.028 193.755C539.345 202.374 530.508 208.42 520.417 210.593C507.636 213.32 491.979 212.628 480.812 205.334C472.198 199.709 465.369 190.29 463.23 180.207C460.21 165.97 461.346 147.668 469.468 135.238C473.63 128.869 481.202 121.702 488.507 118.968C491.705 117.772 495.4 117.255 498.744 116.557ZM484.388 154.608C492.212 154.591 500.06 154.439 507.881 154.57C513.878 154.556 519.959 154.329 525.945 154.66C526.624 151.599 524.552 146.233 522.931 143.671C519.998 139.004 515.326 135.699 509.95 134.488C507.607 133.957 505.061 133.982 502.669 134.029C498.151 135.437 492.187 137.679 489.847 142.113C488.011 145.592 487.06 151.953 484.388 154.608Z"/>
	<path fill="#161D23" d="M553.366 118.056C561.161 118.77 569.486 118.2 577.339 118.199C577.623 118.395 577.897 118.605 578.159 118.831C580.6 120.947 595.579 145.843 595.714 148.294C597.55 146.794 612.902 120.646 613.173 118.211C621.564 117.915 630.041 118.134 638.436 118.291C638.443 118.357 638.452 118.422 638.455 118.488C638.526 120.18 614.101 158.089 610.864 161.404C610.93 161.455 610.996 161.505 611.061 161.557C613.032 163.146 641.193 208.716 641.302 210.019L633.635 210.012C627.647 210.06 621.658 210.06 615.67 210.013C615.669 209.943 615.672 209.872 615.669 209.802C615.662 209.624 597.3 177.331 595.762 175.886C595.817 176.261 595.822 176.637 595.725 177.006C594.787 180.547 578.213 208.363 575.784 209.84C569.49 210.947 557.894 210.1 551.138 210.08C551.49 209.845 551.815 209.574 552.109 209.27C554.806 206.522 581.585 163.643 581.551 160.948C581.626 157.238 556.887 125.011 553.366 118.056Z"/>
	<path fill="#161D23" d="M378.946 83.1126L401.844 83.1583C402.111 83.5916 402.355 84.0491 402.486 84.5447C403.558 88.6159 402.682 110.261 402.68 115.655C402.673 138.672 403.392 161.857 402.752 184.855C402.725 185.807 402.581 186.435 402.091 187.268L453.918 187.28C454.005 187.438 454.01 187.438 454.091 187.627C455.084 189.938 454.478 206.888 453.619 208.911L453.624 209.598C453.441 209.734 453.132 210.039 452.933 210.112C451.975 210.462 385.864 210.003 378.503 210.004C379.654 207.426 379.825 92.5012 378.946 83.1126Z"/>
	<path fill="#FE2E22" d="M308.445 151.933C309.144 151.844 309.681 151.955 310.358 152.108C314.159 155.603 336.531 176.999 337.413 179.625C336.937 181.888 298.285 220.343 293.523 225.323C290.987 224.748 268.104 200.56 264.543 196.987C270.133 191.66 306.772 155.417 308.445 151.933Z"/>
	<path fill="#161D23" d="M653.525 118.056L676.319 118.153C676.559 118.583 676.78 119.032 676.901 119.511C677.909 123.513 677.004 135.269 676.985 139.97L677.166 174.038C677.168 177.649 677.77 207.863 676.977 209.121L676.531 209.83L674.732 210.013C667.476 209.669 660.04 210.027 652.766 210.056C654.761 206.057 652.642 129.925 653.525 118.056Z"/>
	<path fill="#FE2E22" d="M325.566 208.402C326.494 208.63 327.039 209.075 327.733 209.71C332.99 214.527 337.675 219.969 342.804 224.923C350.673 232.524 362.392 242.768 369.026 250.897C371.098 253.436 373.046 256.794 372.639 260.206C372.385 262.342 371.158 263.746 369.545 265.035C366.899 267.149 364.398 267.187 361.199 266.814C359.145 264.583 354.537 261.073 351.951 258.559C343.468 250.204 335.035 241.798 326.654 233.342C322.781 229.456 317.898 223.07 313.145 220.473C316.969 218.598 322.552 211.736 325.566 208.402Z"/>
	<path fill="#161D23" d="M663.713 78.9954C671.326 78.1939 678.155 83.6982 678.992 91.3101C679.828 98.922 674.357 105.779 666.752 106.651C659.096 107.528 652.187 102.012 651.345 94.3501C650.503 86.6881 656.049 79.8021 663.713 78.9954Z"/>
</svg>
